<svg xmlns="http://www.w3.org/2000/svg" viewBox="0 0 137.09 136.36"><path d="M80,96.09v-.2c12.31,0,24.63-.06,36.94,0,7.6,0,10.25-2.12,11.38-9.49s2.36-14.44,3.57-21.65c1.7-10.17,3.47-20.33,5.11-30.51.8-5-1.92-8.45-6.93-9a39.49,39.49,0,0,0-4.49-.1q-40.71,0-81.42,0c-5.65,0-5.67-.05-6.67-5.67-.89-4.91-1.63-9.85-2.59-14.74C34,.17,33.82.1,29.36,0,24.53,0,19.7,0,14.88,0,11.05,0,7.22.05,3.39,0,1.15,0,0,1.06,0,3.36c0,2.66,0,5.33,0,8,.08,4.6.32,4.86,4.76,5,3.83.07,7.66-.06,11.49,0,4,.09,4.23.25,4.78,4.11.64,4.58,1,9.21,1.66,13.78,1,6.58,2.2,13.12,3.35,19.68,2,11.46,4,22.94,6.09,34.38,1,5.27,3.53,7.38,8.88,7.77,1.49.1,3,0,4.49,0Zm-31.3,40.27a13.26,13.26,0,0,0,13.47-12.63c.17-6.93-6.2-13.54-13.18-13.65A13.53,13.53,0,0,0,35.66,123,12.78,12.78,0,0,0,48.65,136.36Zm62.05,0a13.11,13.11,0,0,0,13.63-12.86,13.15,13.15,0,1,0-26.3-.41A13.11,13.11,0,0,0,110.7,136.36Z"/></svg>
