<svg xmlns="http://www.w3.org/2000/svg" viewBox="0 0 395.6 410"><path d="M204.09,0c11.68,4.5,23.29,9.17,35,13.46Q314,40.76,388.87,67.87c6.66,2.42,6.69,2.49,6.69,9.84,0,91,0,163.46,0,254.45,0,6.33,1,6.33-6.62,9.12q-90,32.79-180,65.7c-1.69.61-3.47,1-5.09,1.76-4,1.84-7.75,1.51-11.84,0-18.76-6.95-37.63-13.64-56.43-20.49q-49.53-18-99-36.19c-9.88-3.61-19.72-7.36-29.66-10.78-7.94-2.73-6.56-3-6.57-9.11,0-29.05-.06-39.58-.07-68.63q0-90.21,0-180.42c0-4.09-1-9.1,1-12S8.2,67.39,12,66Q52.14,51.35,92.32,36.86q45.59-16.53,91.15-33.1c2.84-1,5.52-2.5,8.28-3.76ZM215,368.18c2.84-.89,4.57-1.36,6.25-2q66.2-24,132.37-48c9.09-3.32,8-1.82,8-11.31,0-70.66,0-122.82,0-193.48,0-2-.26-4-.43-6.42-2.88.94-5.31,1.66-7.69,2.52q-66.54,24.15-133.08,48.33c-5.38,1.95-5.4,2-5.4,8.39,0,62.18,0,105.86,0,168ZM34.23,106.62v10.65c0,68.62.06,118.73.09,187.34,0,10.92.08,10.79,10.8,14.67q60.76,22,121.49,44.2c4.46,1.62,9,3.1,14.26,4.92v-6.15c0-71.45,0-124.39,0-195.84,0-6.67-.07-6.63-6-8.76q-55.71-20.21-111.4-40.44C54.14,113.8,44.74,110.42,34.23,106.62ZM328.63,82.5c-2.22-1-3.74-1.77-5.35-2.36Q263.3,58.3,203.33,36.4a14.68,14.68,0,0,0-11,.06C154.56,50.27,116.68,63.9,78.83,77.62,75.13,79,71.52,80.57,67,82.41c15.53,5.66,30,10.93,44.43,16.18,26.74,9.73,53.51,19.4,80.21,29.23a17,17,0,0,0,12.66-.06c11.26-4.28,22.63-8.27,34-12.39Z"/></svg>
