<svg xmlns="http://www.w3.org/2000/svg" viewBox="0 0 444.85 128.27"><path d="M0,98.66V0H30.36A46.05,46.05,0,0,1,53.63,5.86a40.89,40.89,0,0,1,16,16.67,51.41,51.41,0,0,1,5.76,24.56v4.54A51.63,51.63,0,0,1,69.76,76.1a40.53,40.53,0,0,1-16,16.6,46.5,46.5,0,0,1-23.24,6ZM20.33,16.47V82.33h9.82q11.93,0,18.23-7.79t6.44-22.3V47q0-15-6.24-22.81T30.36,16.47Z"/><path d="M116.28,71l13.55-45.61h21L121.36,110l-1.63,3.87q-6.57,14.36-21.68,14.36A30.68,30.68,0,0,1,89.38,127V112.14l3,.07q5.55,0,8.3-1.69a11.15,11.15,0,0,0,4.3-5.63l2.3-6L81.58,25.34h21.08Z"/><path d="M198.27,78.4a6.31,6.31,0,0,0-3.56-5.66q-3.56-2.07-11.42-3.69-26.16-5.49-26.15-22.23,0-9.75,8.09-16.29T186.41,24q14,0,22.33,6.57a20.73,20.73,0,0,1,8.36,17.08H197.52a9.48,9.48,0,0,0-2.71-7q-2.72-2.74-8.47-2.74-5,0-7.66,2.23A7.08,7.08,0,0,0,176,45.87a6.05,6.05,0,0,0,3.09,5.26q3.08,2,10.4,3.45a84.54,84.54,0,0,1,12.33,3.29q15.51,5.68,15.52,19.72,0,10-8.61,16.22T186.48,100a38.81,38.81,0,0,1-16.37-3.28,27.52,27.52,0,0,1-11.21-9,21,21,0,0,1-4.07-12.37H173.4a10.25,10.25,0,0,0,3.86,8q3.59,2.78,9.62,2.77,5.63,0,8.51-2.13A6.64,6.64,0,0,0,198.27,78.4Z"/><path d="M226.86,61.32a43.46,43.46,0,0,1,4.2-19.44,30.7,30.7,0,0,1,12.1-13.22A35.34,35.34,0,0,1,261.49,24q14.83,0,24.22,9.08t10.47,24.66l.14,5q0,16.86-9.42,27.07T261.62,100q-15.85,0-25.31-10.16T226.86,62.2Zm19.58,1.39q0,10.46,3.93,16t11.25,5.53a13,13,0,0,0,11.11-5.47q4-5.46,4-17.47,0-10.24-4-15.88a13,13,0,0,0-11.24-5.63,12.79,12.79,0,0,0-11.12,5.59Q246.44,51,246.44,62.71Z"/><path d="M326.4,25.34l.61,8.47Q334.87,24,348.08,24q11.66,0,17.35,6.84t5.83,20.46V98.66H351.68V51.77c0-4.16-.91-7.17-2.71-9.05s-4.82-2.81-9-2.81A13.48,13.48,0,0,0,327.55,47v51.7H308V25.34Z"/><path d="M425.81,78.4a6.31,6.31,0,0,0-3.56-5.66q-3.56-2.07-11.42-3.69-26.16-5.49-26.15-22.23,0-9.75,8.09-16.29T414,24q13.95,0,22.32,6.57a20.71,20.71,0,0,1,8.37,17.08H425.06a9.48,9.48,0,0,0-2.71-7q-2.72-2.74-8.47-2.74-5,0-7.66,2.23a7.08,7.08,0,0,0-2.71,5.69,6.05,6.05,0,0,0,3.09,5.26q3.07,2,10.4,3.45a84.54,84.54,0,0,1,12.33,3.29q15.51,5.68,15.52,19.72,0,10-8.61,16.22T414,100a38.81,38.81,0,0,1-16.37-3.28,27.46,27.46,0,0,1-11.21-9,21,21,0,0,1-4.07-12.37h18.57a10.22,10.22,0,0,0,3.86,8q3.58,2.78,9.62,2.77,5.63,0,8.51-2.13A6.64,6.64,0,0,0,425.81,78.4Z"/></svg>
