<svg xmlns="http://www.w3.org/2000/svg" viewBox="0 0 320.16 512.03"><path d="M320.14,256.15q0,95.73,0,191.46c0,16.12-6.21,29.77-16.71,41.64-9.27,10.48-20.54,17.95-34.3,21.14A57.73,57.73,0,0,1,256.31,512q-96.23.13-192.46.05c-15.36,0-28.52-5.93-40-15.77A67.8,67.8,0,0,1,4.73,470.39,57.12,57.12,0,0,1,.09,448.58q0-73.23,0-146.47V86.66c0-6.34.2-12.67,0-19A60.42,60.42,0,0,1,13.1,27.19C22.87,14.63,35,5.32,50.82,1.71A58.46,58.46,0,0,1,63.63.08q96.48-.15,193-.06c14.62,0,27.3,5.54,38.43,14.61a68.56,68.56,0,0,1,20.56,27.23,56.67,56.67,0,0,1,4.58,21.83V256.15Zm-32.09-42.88V130.78c0-22.33.07-44.66,0-67,0-7.81-1.81-15.17-7-21.35-6.42-7.61-15-10.3-24.49-10.31q-96-.12-192,0a42.06,42.06,0,0,0-10.37,1.2c-9.68,2.47-16.53,8.35-19.89,17.92A42.07,42.07,0,0,0,32.15,65.5q0,148.22,0,296.45c0,6.8-.46,6,5.82,6q121.73,0,243.46,0c7.49,0,6.59.85,6.59-6.7Q288.07,287.26,288.05,213.27ZM160.16,400.07v0H98.67q-31.24,0-62.49,0c-3.9,0-4,.08-4,3.8,0,15.33-.16,30.67.1,46,.14,8.2,2.6,15.72,8.72,21.67,6.38,6.19,14.25,8.37,22.83,8.38q62.73.11,125.48.06c22.66,0,45.33.33,68-.12,18.68-.36,29.76-11.14,30.59-29.39.7-15.63.18-31.32.15-47,0-3.26-.12-3.26-3.39-3.38-.83,0-1.67,0-2.5,0Z"/><path d="M191.23,439.23c-.27,6.44-2.8,10.9-6.06,15A29,29,0,0,1,175,462.08a17.08,17.08,0,0,1-16.27-.22,29.25,29.25,0,0,1-14.8-16.76,14.57,14.57,0,0,1-.11-9.77,28.46,28.46,0,0,1,18.66-18.63,14.09,14.09,0,0,1,9.29,0c8.78,2.9,14.71,8.82,18.2,17.24A28.06,28.06,0,0,1,191.23,439.23ZM174.9,440.5c-.15-2.21-2.91-5.49-5.26-7.18-1.72-1.24-3.32-1.41-5-.05a29.76,29.76,0,0,0-2.95,2.66c-3.08,3.34-3.14,4.69,0,8,4.78,5.14,6.24,4.85,10.82.07A23,23,0,0,0,174.9,440.5Z"/></svg>
