<svg xmlns="http://www.w3.org/2000/svg" viewBox="0 0 352.59 453.41"><path d="M.07,184.27C.07,149.11.11,114,0,78.8A11.13,11.13,0,0,1,3.51,70Q37.06,36.8,70.32,3.26A10.11,10.11,0,0,1,78.19,0q98,.14,195.93,0a10.67,10.67,0,0,1,8.3,3.41q33.27,33.53,66.8,66.8a10.68,10.68,0,0,1,3.35,8.33q-.13,106,0,211.92a10.64,10.64,0,0,1-4.14,8.91c-8.53,7.45-16.83,15.16-25.2,22.79q-44.7,40.71-89.38,81.45-25.29,23.06-50.53,46.18c-.86.79-1.76,1.54-2.55,2.39-1.58,1.7-3.1,1.56-4.75.08-3.72-3.34-7.49-6.62-11.22-9.94L66.63,355Q34.71,326.61,2.75,298.26c-2.3-2-2.73-4.23-2.73-7Q.11,237.74.07,184.27ZM178.25,410.36,216,375.93q19-17.35,38-34.72,31.58-28.79,63.21-57.52a7.92,7.92,0,0,0,2.92-6.42q-.12-93.24,0-186.48a8.4,8.4,0,0,0-2.71-6.56q-24.66-24.48-49.13-49.14a8.43,8.43,0,0,0-6.6-2.64q-85.49.09-171,0a8.46,8.46,0,0,0-6.53,2.79Q59.85,59.71,35.38,84a9,9,0,0,0-2.93,7q.11,93,0,186a8.16,8.16,0,0,0,3.14,6.81c9.18,8,18.22,16.12,27.31,24.2l98.22,87.32C166.71,400.26,172.35,405.17,178.25,410.36Z" transform="translate(0)"/><path class="cls-1" d="M176.16,233.06a6.86,6.86,0,0,0,.84-.54q33-33.06,66.05-66.13c5.06-5.07,10-10.22,15.12-15.27,2.63-2.61,2.77-2.61,5.2-.22q9.27,9.12,18.39,18.38c2.25,2.28,2.23,2.48-.07,4.84-2.8,2.85-5.76,5.54-8.59,8.36q-46,45.92-92,91.85c-.82.82-1.62,1.67-2.48,2.46-2.37,2.2-2.4,2.21-4.82-.06-1.34-1.26-2.6-2.59-3.9-3.88q-41-41-82-82c-5.54-5.53-11.2-10.94-16.73-16.48-2.64-2.64-2.64-2.81-.28-5.2Q80,160,89.26,150.84c2.3-2.27,2.5-2.25,4.84,0s4.36,4.59,6.6,6.83q36.36,36.44,72.76,72.86C174.27,231.35,175.14,232.11,176.16,233.06Z" transform="translate(0)"/></svg>
